<?xml version="1.0" encoding="UTF-8"?>
<svg width="21px" height="21px" viewBox="0 0 21 21" version="1.1" xmlns="http://www.w3.org/2000/svg" xmlns:xlink="http://www.w3.org/1999/xlink">
    <title>facebook-hover@1x</title>
    <g id="DESIGN-SYSTEME" stroke="none" stroke-width="1" fill="none" fill-rule="evenodd">
        <g id="icon-socials" transform="translate(-165.000000, -196.000000)" fill="#5F70EE">
            <g id="Facebook/Color" transform="translate(165.000000, 196.000000)">
                <path d="M11.2167804,21 L1.15903879,21 C0.518731787,21 0,20.4809463 0,19.8408887 L0,1.1590298 C0,0.518809246 0.518813272,0 1.15903879,0 L19.8410427,0 C20.4811052,0 21,0.518809246 21,1.1590298 L21,19.8408887 C21,20.4810278 20.4810238,21 19.8410427,21 L14.4896961,21 L14.4896961,12.8676427 L17.219353,12.8676427 L17.6280804,9.69831871 L14.4896961,9.69831871 L14.4896961,7.67490561 C14.4896961,6.7573132 14.7444988,6.13200424 16.0603142,6.13200424 L17.7385737,6.13127088 L17.7385737,3.29660211 C17.4483251,3.25797865 16.4520928,3.17168699 15.293054,3.17168699 C12.873365,3.17168699 11.2167804,4.64866774 11.2167804,7.36102887 L11.2167804,9.69831871 L8.48011579,9.69831871 L8.48011579,12.8676427 L11.2167804,12.8676427 L11.2167804,21 L11.2167804,21 Z" id="Facebook-/-Color"></path>
            </g>
        </g>
    </g>
</svg>