<?xml version="1.0" encoding="UTF-8"?>
<svg width="22px" height="21px" viewBox="0 0 22 21" version="1.1" xmlns="http://www.w3.org/2000/svg" xmlns:xlink="http://www.w3.org/1999/xlink">
    <title>Instagram</title>
    <g id="participant-V2" stroke="none" stroke-width="1" fill="none" fill-rule="evenodd">
        <g id="Accueil-participant" transform="translate(-170.000000, -673.000000)" fill="#000073">
            <g id="Instagram-/-Color" transform="translate(170.388327, 673.000000)">
                <path d="M11.5789363,0.000818528391 C12.7604451,0.00296297313 13.3596986,0.00968019794 13.8773508,0.0251097991 L14.0812463,0.031756112 L14.0812463,0.031756112 L14.2835581,0.0393906194 C14.4534693,0.0461808104 14.6291479,0.054061698 14.8291366,0.0631866005 C15.9467391,0.114161015 16.7100216,0.29167535 17.377899,0.551257242 C18.0683668,0.819550215 18.6539265,1.17858015 19.237694,1.76230597 C19.8214199,2.34607346 20.1804498,2.93163319 20.4487844,3.62210102 C20.7083247,4.28997839 20.885839,5.05326085 20.9368134,6.17086343 C20.9459383,6.37085211 20.9538192,6.54653068 20.9606094,6.71644209 L20.9682439,6.91875432 L20.9682439,6.91875432 L20.9748902,7.12265059 C20.9903198,7.64030507 20.997037,8.2395647 20.9991815,9.42108996 L20.9991815,11.5789363 C20.997037,12.7604451 20.9903198,13.3596986 20.9748902,13.8773508 L20.9682439,14.0812463 L20.9682439,14.0812463 L20.9606094,14.2835581 C20.9538192,14.4534693 20.9459383,14.6291479 20.9368134,14.8291366 C20.885839,15.9467391 20.7083247,16.7100216 20.4487844,17.377899 C20.1804498,18.0683668 19.8214199,18.6539265 19.237694,19.237694 C18.6539265,19.8214199 18.0683668,20.1804498 17.377899,20.4487844 C16.7100216,20.7083247 15.9467391,20.885839 14.8291366,20.9368134 C14.6291479,20.9459383 14.4534693,20.9538192 14.2835581,20.9606094 L14.0812463,20.9682439 L14.0812463,20.9682439 L13.8773508,20.9748902 C13.3596986,20.9903198 12.7604451,20.997037 11.5789363,20.9991815 L10.7961551,20.9999525 L10.7961551,20.9999525 L10.5000208,21 C10.3981762,21 10.2995128,20.9999846 10.2038823,20.9999525 L9.42108996,20.9991815 C8.2395647,20.997037 7.64030507,20.9903198 7.12265059,20.9748902 L6.91875432,20.9682439 L6.91875432,20.9682439 L6.71644209,20.9606094 C6.54653068,20.9538192 6.37085211,20.9459383 6.17086343,20.9368134 C5.05326085,20.885839 4.28997839,20.7083247 3.62210102,20.4487844 C2.93163319,20.1804498 2.34607346,19.8214199 1.76230597,19.237694 C1.17858015,18.6539265 0.819550215,18.0683668 0.551257242,17.377899 C0.29167535,16.7100216 0.114161015,15.9467391 0.0631866005,14.8291366 C0.054061698,14.6291479 0.0461808104,14.4534693 0.0393906194,14.2835581 L0.031756112,14.0812463 L0.031756112,14.0812463 L0.0251097991,13.8773508 C0.00968019794,13.3596986 0.00296297313,12.7604451 0.000818528391,11.5789363 L0.000818528391,9.42108996 C0.00296297313,8.2395647 0.00968019794,7.64030507 0.0251097991,7.12265059 L0.031756112,6.91875432 L0.031756112,6.91875432 L0.0393906194,6.71644209 C0.0461808104,6.54653068 0.054061698,6.37085211 0.0631866005,6.17086343 C0.114161015,5.05326085 0.29167535,4.28997839 0.551257242,3.62210102 C0.819550215,2.93163319 1.17858015,2.34607346 1.76230597,1.76230597 C2.34607346,1.17858015 2.93163319,0.819550215 3.62210102,0.551257242 C4.28997839,0.29167535 5.05326085,0.114161015 6.17086343,0.0631866005 C6.37085211,0.054061698 6.54653068,0.0461808104 6.71644209,0.0393906194 L6.91875432,0.031756112 L6.91875432,0.031756112 L7.12265059,0.0251097991 C7.64030507,0.00968019794 8.2395647,0.00296297313 9.42108996,0.000818528391 Z M10.7910965,1.89193083 L10.2089409,1.89193083 C10.1149681,1.89195948 10.0239999,1.89200312 9.93588839,1.89206307 L9.44031602,1.89262915 C7.58568137,1.89576133 7.20611264,1.90981679 6.25709897,1.95311616 C5.23335933,1.99979756 4.67739227,2.17085152 4.30740055,2.31464688 C3.8172876,2.50512364 3.46751058,2.73265375 3.10010301,3.10010301 C2.73265375,3.46751058 2.50512364,3.8172876 2.31464688,4.30740055 C2.17085152,4.67739227 1.99979756,5.23335933 1.95311616,6.25709897 C1.90981679,7.20611264 1.89576133,7.58568137 1.89262915,9.44031602 L1.89206307,9.93588839 C1.89194316,10.1121115 1.89188851,10.2997612 1.89188851,10.5000208 L1.89193083,10.7910965 C1.89195948,10.8850678 1.89200312,10.9760347 1.89206307,11.064145 L1.89262915,11.5597102 C1.89576133,13.4143186 1.90981679,13.7938874 1.95311616,14.742901 C1.99979756,15.7666407 2.17085152,16.3226077 2.31464688,16.6925995 C2.50512364,17.1827124 2.73269543,17.5324894 3.10010301,17.899897 C3.46751058,18.2673462 3.8172876,18.4948764 4.30740055,18.6853531 C4.67739227,18.8291485 5.23335933,19.0002024 6.25709897,19.0468838 C7.20600547,19.0901832 7.58549764,19.1042387 9.44024384,19.1073709 L9.93584811,19.1079369 C10.1120832,19.1080568 10.2997463,19.1081115 10.5000208,19.1081115 L10.7911178,19.1080692 C10.885096,19.1080405 10.9760694,19.1079969 11.0641859,19.1079369 L11.5597846,19.1073709 C13.4145126,19.1042387 13.7940303,19.0901832 14.742901,19.0468838 C15.7666407,19.0002024 16.3226077,18.8291485 16.6925995,18.6853531 C17.1827124,18.4948764 17.5324894,18.2673462 17.899897,17.899897 C18.2673462,17.5324894 18.4948764,17.1827124 18.6853531,16.6925995 C18.8291485,16.3226077 19.0002024,15.7666407 19.0468838,14.742901 C19.0901832,13.7938874 19.1042387,13.4143186 19.1073709,11.5597102 L19.1079369,11.064145 C19.1080568,10.8879245 19.1081115,10.7002775 19.1081115,10.5000208 L19.1080692,10.2089409 C19.1080405,10.1149681 19.1079969,10.0239999 19.1079369,9.93588839 L19.1073709,9.44031602 C19.1042387,7.58568137 19.0901832,7.20611264 19.0468838,6.25709897 C19.0002024,5.23335933 18.8291485,4.67739227 18.6853531,4.30740055 C18.4948764,3.8172876 18.2673462,3.46751058 17.899897,3.10010301 C17.5324894,2.73265375 17.1827124,2.50512364 16.6925995,2.31464688 C16.3226077,2.17085152 15.7666407,1.99979756 14.742901,1.95311616 C13.7938874,1.90981679 13.4143186,1.89576133 11.5597102,1.89262915 L11.064145,1.89206307 C10.8879245,1.89194316 10.7002775,1.89188851 10.5000208,1.89188851 Z M10.5000208,5.10811149 C13.4778769,5.10811149 15.8918885,7.52212305 15.8918885,10.5000208 C15.8918885,13.4778769 13.4778769,15.8918885 10.5000208,15.8918885 C7.52212305,15.8918885 5.10811149,13.4778769 5.10811149,10.5000208 C5.10811149,7.52212305 7.52212305,5.10811149 10.5000208,5.10811149 Z M10.5000208,7 C8.56699435,7 7,8.56699435 7,10.5000208 C7,12.4330057 8.56699435,14 10.5000208,14 C12.4330057,14 14,12.4330057 14,10.5000208 C14,8.56699435 12.4330057,7 10.5000208,7 Z M16.1049141,3.63506344 C16.8008003,3.63506344 17.3649366,4.19919975 17.3649366,4.89508595 C17.3649366,5.59097215 16.8008003,6.15506678 16.1049141,6.15506678 C15.4090695,6.15506678 14.8449332,5.59097215 14.8449332,4.89508595 C14.8449332,4.19919975 15.4090695,3.63506344 16.1049141,3.63506344 Z"></path>
            </g>
        </g>
    </g>
</svg>