<?xml version="1.0" encoding="UTF-8"?>
<svg width="21px" height="21px" viewBox="0 0 21 21" version="1.1" xmlns="http://www.w3.org/2000/svg" xmlns:xlink="http://www.w3.org/1999/xlink">
    <title>linkedin@1x</title>
    <g id="DESIGN-SYSTEME" stroke="none" stroke-width="1" fill="none" fill-rule="evenodd">
        <g id="icon-socials" transform="translate(-132.000000, -137.000000)" fill="#323B83">
            <g id="linkedin" transform="translate(132.000000, 136.999962)">
                <path d="M2.1875,4.59556561 C2.18799813,5.67997198 3.06247092,6.55426839 4.15478391,6.56248359 C5.2273668,6.57057432 6.12791818,5.67100994 6.125,4.59456983 C6.12200537,3.50549572 5.2436737,2.62460226 4.16119464,2.62503775 C3.06141284,2.6255358 2.18700229,3.49852525 2.1875,4.59556561 M5.68456115,13.563352 C5.68456115,12.0249162 5.68268286,10.4864804 5.6875,8.94804452 C5.68796555,8.79494077 5.6474062,8.74883845 5.49755377,8.75003775 C4.60266534,8.75721513 3.70771822,8.75721513 2.81282979,8.75003775 C2.65986644,8.74883845 2.62482457,8.80276716 2.625,8.95208 C2.62840506,12.0238156 2.62752461,15.0956124 2.6277007,18.167348 C2.6277594,18.369489 2.63263122,18.374625 2.82409954,18.3747473 C3.70431382,18.3751753 4.58458679,18.3750377 5.46480107,18.3748696 C5.68397419,18.3748696 5.68450246,18.3745027 5.68450246,18.1480266 C5.68467855,16.6198017 5.68461985,15.0915769 5.68456115,13.563352 M11.5699461,9.74360393 C11.5555808,9.73885088 11.5412155,9.73403529 11.526789,9.7292197 C11.526789,9.39725664 11.5199426,9.06504342 11.5298455,8.73339306 C11.5344913,8.57941924 11.494085,8.5257598 11.3345993,8.5270106 C10.3924172,8.53445288 9.45005169,8.53439034 8.50786958,8.5270106 C8.35174598,8.5257598 8.31225661,8.57166426 8.3125,8.72845239 C8.31678016,11.8757849 8.31678016,15.0231174 8.31262338,18.1705125 C8.3125,18.3275508 8.35468017,18.3761444 8.5100091,18.3750377 C9.44204378,18.368452 10.3741396,18.3718917 11.3062354,18.3717041 C11.5262389,18.3716415 11.5267279,18.3710787 11.5267279,18.1454339 C11.5269113,16.3528459 11.5266668,14.5603204 11.5272169,12.7677949 C11.5272169,12.6532214 11.5281339,12.5383351 11.5354694,12.4240743 C11.6084575,11.2954749 12.8405747,10.5786399 13.8240189,11.0994116 C14.4254676,11.417866 14.724511,11.9338847 14.7243887,12.629206 C14.7241442,14.4790182 14.7259781,16.328893 14.721699,18.1787678 C14.7213323,18.3298022 14.7670568,18.3753314 14.9131552,18.3745184 C15.8553985,18.3690774 16.7976417,18.3720168 17.7399461,18.3715165 C17.9277345,18.3713914 17.9356202,18.3629485 17.9356813,18.1661347 C17.9359258,16.1756071 17.9424055,14.1849545 17.9293239,12.1944895 C17.927001,11.8391989 17.876814,11.4757156 17.7911111,11.1309944 C17.4000074,9.55748448 15.984014,8.38079176 14.4008326,8.31562493 C13.2929908,8.27003317 12.3984282,8.73101654 11.691593,9.59244442 C11.6505754,9.64241399 11.6104747,9.69319658 11.5699461,9.74360393 M20.9982206,10.5138743 C20.9980964,13.213815 21.003931,15.9137556 20.9951171,18.6135721 C20.9918274,19.6305578 20.5115946,20.3653648 19.5908536,20.8004887 C19.2636225,20.9551718 18.9106324,20.997629 18.5489527,20.9974428 C14.2561544,20.9952082 9.96335624,20.9960151 5.67055804,20.9960151 C4.56894611,20.9960151 3.46714798,21.0070639 2.36566019,20.9925391 C1.36242863,20.9793178 0.627089639,20.5099923 0.209298908,19.5959838 C0.092173502,19.3397511 0.0683387611,19.0401922 0.00757258594,18.7592548 C-0.00633101288,18.6948863 0.00316564167,18.6252416 0.00316564167,18.5580178 C0.00310357203,13.1840205 0.00440703442,7.8100852 0.00136562218,2.43608786 C0.000993204356,1.78091914 0.19347115,1.20569901 0.647696758,0.728552454 C1.08075662,0.27362763 1.61654173,0.0367613282 2.24282437,0.00299422434 C2.28410068,0.000821708466 2.3255632,0.000263061527 2.36690158,0.000263061527 C7.78725682,3.77489264e-05 13.20755,-0.000357657294 18.6278432,0.000697564701 C19.3688926,0.000883780348 19.9855544,0.281448687 20.4622492,0.851330637 C20.8280256,1.28862705 20.997724,1.79935449 20.9979723,2.36762257 C20.9983447,3.41756846 20.9982206,4.46757642 20.9982826,5.5175223 C20.9982826,7.18297297 20.9982826,8.84842364 20.9982206,10.5138743" id="linkedin-copy"></path>
            </g>
        </g>
    </g>
</svg>