<?xml version="1.0" encoding="UTF-8"?>
<svg width="21px" height="21px" viewBox="0 0 21 21" version="1.1" xmlns="http://www.w3.org/2000/svg" xmlns:xlink="http://www.w3.org/1999/xlink">
    <title>twitter</title>
    <g id="DESIGN-SYSTEME" stroke="none" stroke-width="1" fill="none" fill-rule="evenodd">
        <g id="icon-socials" transform="translate(-198.000000, -137.000000)" fill="#323B83">
            <g id="twitter" transform="translate(198.000000, 137.000000)">
                <path d="M18,0 C19.6568542,-3.04359188e-16 21,1.34314575 21,3 L21,18 C21,19.6568542 19.6568542,21 18,21 L3,21 C1.34314575,21 2.02906125e-16,19.6568542 0,18 L0,3 C-2.02906125e-16,1.34314575 1.34314575,3.04359188e-16 3,0 L18,0 Z M16.7623516,4.46534856 C15.3403913,2.95340025 12.9612853,2.88051735 11.4485932,4.30247759 C10.4728548,5.21946346 10.0593559,6.58638967 10.3620431,7.89084484 C7.34186497,7.73987311 4.52843631,6.31345065 2.62158168,3.96706751 C1.62501958,5.68353416 2.13371247,7.87894559 3.78398955,8.98185722 C3.1860523,8.96400834 2.60150169,8.80262478 2.07942215,8.51183689 L2.07942215,8.55943388 C2.07942215,10.347296 3.33999883,11.8867614 5.09216323,12.240764 C4.53959186,12.3917357 3.95950347,12.4140468 3.39652026,12.3054662 C3.88885168,13.8352634 5.29816897,14.883141 6.90531128,14.9136328 C5.57482651,15.9585356 3.93198646,16.525981 2.24080571,16.5244936 C1.94183708,16.5237499 1.64361216,16.505901 1.34687464,16.4702033 C3.0648287,17.5723712 5.06315881,18.1569218 7.10387999,18.153947 C14.0121377,18.1569218 17.7901492,12.4333831 17.7901492,7.47065261 C17.7901492,7.30778164 17.7901492,7.14639808 17.7789937,6.98501451 C18.5137723,6.45326683 19.1488947,5.79508962 19.6531254,5.03948732 C18.9681748,5.34366187 18.2408333,5.54297429 17.4963865,5.63073125 C18.2802495,5.16145462 18.8670312,4.42295748 19.1474073,3.55356861 C18.4096539,3.99086601 17.6034797,4.29950278 16.7623516,4.46534856 Z" id="Combined-Shape"></path>
            </g>
        </g>
    </g>
</svg>