<?xml version="1.0" encoding="UTF-8"?>
<svg width="24px" height="22px" viewBox="0 0 24 22" version="1.1" xmlns="http://www.w3.org/2000/svg" xmlns:xlink="http://www.w3.org/1999/xlink">
    <title>Youtube hover</title>
    <g id="participant-V2" stroke="none" stroke-width="1" fill="none" fill-rule="evenodd">
        <g id="Group" transform="translate(-2.880515, 0.000000)" fill="#7546D5">
            <g id="Youtube/Color" transform="translate(3.088235, 0.000000)">
                <path d="M8.67423529,14.3725952 L8.67330882,5.9836051 L16.6835735,10.1925623 L8.67423529,14.3725952 Z M21.9956471,1.56657929 C19.9780347,0 11.7417794,0 11.7417794,0 L11.7288088,0 C11.7288088,0 3.37644571,0 1.47401471,1.56657929 C0.585529412,2.47256409 0.296470588,4.52992402 0.296470588,4.52992402 C0.296470588,4.52992402 7.00624199e-14,6.94650553 7.00624199e-14,9.362154 L7.00624199e-14,11.6275825 C7.00624199e-14,14.044164 0.296470588,16.4598125 0.296470588,16.4598125 C0.296470588,16.4598125 0.585529412,18.5171724 1.47401471,19.4231572 C3.28874401,21.2624678 11.7352941,21 11.7352941,21 C11.7352941,21 20.3252485,21.2596914 21.9956471,19.4231572 C22.8841324,18.5171724 23.1741176,16.4598125 23.1741176,16.4598125 C23.1741176,16.4598125 23.4705882,14.044164 23.4705882,11.6275825 L23.4705882,9.362154 C23.4705882,6.94650553 23.1741176,4.52992402 23.1741176,4.52992402 C23.1741176,4.52992402 22.8841324,2.47256409 21.9956471,1.56657929 Z" id="Youtube-/-Color"></path>
            </g>
        </g>
    </g>
</svg>